# xmcd
#
# Track frame offsets:
#	150
#	13796
#	37653
#	53242
#	68574
#	85805
#	103394
#	128668
#	160232
#	179149
#	201639
#	216643
#
# Disc length: 3151 seconds
#
# Revision: 5
# Processed by: cddbd v1.5.2PL0 Copyright (c) Steve Scherf et al.
# Submitted via: audiograbber 1.83.01
#
DISCID=b10c4d0c
DTITLE=Various Artist - No. 1 Soul Hits [Disc 1]
DYEAR=2003
DGENRE=R&B
TTITLE0=The Jackson Five - I Want You Back
TTITLE1=Booker Newberry III - Love Town
TTITLE2=Stephanie Mills - Never Knew Love Like This Before
TTITLE3=Johnny Bristol - Hang On In There Baby
TTITLE4=The Brothers Johnson - Strawberry Letter 23
TTITLE5=Jeffrey Osbourne - Don't You Get So Mad
TTITLE6=Mary Jane Girls - All Night Long
TTITLE7=Barry White - It's Ectasy When You Lay Down Next To Me
TTITLE8=Gene Chandler - Does She Have A Friend
TTITLE9=Atlantic Starr - Silver Shadow
TTITLE10=David Ruffin - Walk Away From Love
TTITLE11=Brenda Russell - Piano In The Dark
EXTD=
EXTT0=
EXTT1=
EXTT2=
EXTT3=
EXTT4=
EXTT5=
EXTT6=
EXTT7=
EXTT8=
EXTT9=
EXTT10=
EXTT11=
PLAYORDER=
